<?xml version="1.0" encoding="UTF-8"?>
<svg width="512px" height="448px" viewBox="0 0 512 448" version="1.1" xmlns="http://www.w3.org/2000/svg" xmlns:xlink="http://www.w3.org/1999/xlink">
    <title>six-columns</title>
    <g id="Page-1" stroke="none" stroke-width="1" fill="none" fill-rule="evenodd">
        <g id="Artboard" fill="#062AAA" fill-rule="nonzero">
            <path d="M0,64 C0,28.7 28.7,0 64,0 L448,0 C483.3,0 512,28.7 512,64 L512,384 C512,419.3 483.3,448 448,448 L64,448 C28.7,448 0,419.3 0,384 L0,64 Z M64,128 L64,384 L128,384 L128,128 L64,128 Z M141,128 L141,384 L205,384 L205,128 L141,128 Z M218,128 L218,384 L282,384 L282,128 L218,128 Z M295,128 L295,384 L359,384 L359,128 L295,128 Z M372,128 L372,384 L436,384 L436,128 L372,128 Z M449,128 L449,384 L448,384 L448,128 L449,128 Z" id="Shape"></path>
        </g>
    </g>
</svg>
